# AST/ASF file generated using VICON BodyLanguage
# -----------------------------------------------
:version 1.10
:name VICON
:units
  mass 1.0
  length 0.45
  angle deg
:documentation
   .ast/.asf automatically generated from VICON data using
   VICON BodyBuilder and BodyLanguage model FoxedUp or BRILLIANT.MOD
:root
   order TX TY TZ RX RY RZ
   axis XYZ
   position 0 0 0  
   orientation 0 0 0 
:bonedata
  begin
     id 1 
     name lhipjoint
     direction 0.682418 -0.694059 0.22932 
     length 2.25561 
     axis 0 0 0  XYZ
  end
  begin
     id 2 
     name lfemur
     direction 0.34202 -0.939693 0  
     length 6.96448  
     axis 0 0 20  XYZ
    dof rx ry rz
    limits (-160.0 20.0)
           (-70.0 70.0)
           (-60.0 70.0)
  end
  begin
     id 3 
     name ltibia
     direction 0.34202 -0.939693 0   
     length 6.88553   
     axis 0 0 20   XYZ
    dof rx
    limits (-10.0 170.0)
  end
  begin
     id 4 
     name lfoot
     direction 0.0723587 -0.198804 0.977364   
     length 1.88518   
     axis -90 7.62852e-016 20   XYZ
    dof rx rz
    limits (-45.0 90.0)
           (-70.0 20.0)
  end
  begin
     id 5 
     name ltoes
     direction 1.53558e-011 -4.21962e-011 1   
     length 0.952124   
     axis -90 7.62852e-016 20   XYZ
    dof rx
    limits (-90.0 20.0)
  end
  begin
     id 6 
     name rhipjoint
     direction -0.657603 -0.71533 0.236348   
     length 2.18854  
     axis 0 0 0  XYZ 
  end
  begin
     id 7 
     name rfemur
     direction -0.34202 -0.939693 0   
     length 6.86686   
     axis 0 0 -20   XYZ
    dof rx ry rz
    limits (-160.0 20.0)
           (-70.0 70.0)
           (-70.0 60.0)
  end
  begin
     id 8 
     name rtibia
     direction -0.34202 -0.939693 0   
     length 6.59503   
     axis 0 0 -20   XYZ
    dof rx
    limits (-10.0 170.0)
 end
 begin
     id 9 
     name rfoot
     direction -0.101977 -0.280179 0.954516   
     length 1.93723  
     axis -90 -7.62852e-016 -20   XYZ
    dof rx rz
    limits (-45.0 90.0)
           (-20.0 70.0)
  end
  begin
     id 10 
     name rtoes
     direction -1.53564e-011 -4.21897e-011 1   
     length 0.970315   
     axis -90 -7.62852e-016 -20   XYZ
    dof rx
    limits (-90.0 20.0)
  end
  begin
     id 11 
     name lowerback
     direction -0.0339559 0.999421 -0.00235966   
     length 1.88543   
     axis 0 0 0   XYZ
    dof rx ry rz
    limits (-20.0 45.0)
           (-30.0 30.0)
           (-30.0 30.0)
  end
  begin
     id 12 
     name upperback
     direction 0.00401003 0.999739 0.0224689   
     length 1.8856   
     axis 0 0 0   XYZ
    dof rx ry rz
    limits (-20.0 45.0)
           (-30.0 30.0)
           (-30.0 30.0)
  end
  begin
     id 13 
     name thorax
     direction 0.0198619 0.999546 0.0226536   
     length 1.88352   
     axis 0 0 0   XYZ
    dof rx ry rz
    limits (-20.0 45.0)
           (-30.0 30.0)
           (-30.0 30.0)
  end
  begin
     id 14 
     name lowerneck
     direction -0.0461848 0.998632 0.0245198   
     length 1.34895   
     axis 0 0 0   XYZ
    dof rx ry rz
    limits (-20.0 45.0)
           (-30.0 30.0)
           (-30.0 30.0)
  end
  begin
     id 15 
     name upperneck
     direction -0.0180627 0.994724 -0.100984   
     length 1.35214   
     axis 0 0 0   XYZ
    dof rx ry rz
    limits (-20.0 45.0)
           (-30.0 30.0)
           (-30.0 30.0)
  end
  begin
     id 16
     name head
     direction -0.00374772 0.999293 -0.037403  
     length 1.3568  
     axis 0 0 0   XYZ
    dof rx ry rz
    limits (-20.0 45.0)
           (-30.0 30.0)
           (-30.0 30.0)
  end
  begin
     id 17 
     name lclavicle
     direction 0.971773 0.191119 0.138311  
     length 2.84954  
     axis 0 0 0   XYZ
    dof ry rz
    limits (-20.0 10.0)
           (0.0 20.0)
  end
  begin
     id 18 
     name lhumerus
     direction 1 -4.4897e-011 -2.43761e-027   
     length 4.40919   
     axis 180 -30 -90   XYZ
    dof rx ry rz
    limits (-60.0 90.0)
           (-90.0 90.0)
           (-90.0 90.0)
  end
  begin
     id 19
     name lradius
     direction 1 -4.4896e-011 -9.1621e-027   
     length 3.03857   
     axis 180 -30 -90   XYZ
    dof rx
    limits (-10.0 170.0)
  end
  begin
     id 20
     name lwrist
     direction 1 -4.4896e-011 -1.41363e-026   
     length 1.51928   
     axis 1.07133e-014 90 90   XYZ
    dof ry
    limits (-180.0 0.0)
 end
  begin
     id 21 
     name lhand
     direction 1 -4.48978e-011 -2.82725e-026   
     length 0.523208   
     axis 1.80403e-014 90 90   XYZ
    dof rx rz
    limits (-90.0 90.0)
           (-45.0 45.0)
  end
  begin
     id 22 
     name lfingers
     direction 1 -4.48977e-011 -5.6545e-026   
     length 0.421824   
     axis 3.60806e-014 90 90   XYZ
    dof rx
    limits (0.0 90.0)
  end
  begin
     id 23
     name lthumb
     direction 0.707107 -6.34962e-011 0.707107   
     length 0.605657   
     axis -90 45 2.85299e-015   XYZ
    dof rx rz
    limits (-45.0 45.0)
           (-45.0 45.0)
  end
  begin
     id 24 
     name rclavicle
     direction -0.957247 0.24311 0.156766   
     length 3.12406  
     axis 0 0 0   XYZ 
    dof ry rz
    limits (-10.0 20.0)
           (-20.0 0.0)
  end
  begin
     id 25 
     name rhumerus
     direction -1 -4.48964e-011 -1.70632e-027  
     length 4.61969   
     axis 180 30 90   XYZ
    dof rx ry rz
    limits (-90.0 60.0)
           (-90.0 90.0)
           (-90.0 90.0)
  end
  begin
     id 26 
     name rradius
     direction -1 -4.48966e-011 -6.60395e-027   
     length 3.09382   
     axis 180 30 90   XYZ
    dof rx
    limits (-10.0 170.0)
  end
  begin
     id 27 
     name rwrist
     direction -1 -4.48963e-011 -1.41363e-026   
     length 1.54691   
     axis 1.07133e-014 -90 -90   XYZ
    dof ry
    limits (-180.0 0.0)
  end
  begin
     id 28
     name rhand
     direction -1 -4.49013e-011 -2.82725e-026   
     length 0.500896   
     axis 1.80403e-014 -90 -90   XYZ
    dof rx rz
    limits (-90.0 90.0)
           (-45.0 45.0)
  end
  begin
     id 29
     name rfingers
     direction -1 -4.48902e-011 -5.6545e-026   
     length 0.403835   
     axis 3.60806e-014 -90 -90   XYZ
    dof rx
    limits (0.0 90.0)
  end
  begin
     id 30
     name rthumb
     direction -0.707107 -6.34953e-011 0.707107   
     length 0.579829   
     axis -90 -45 -2.85299e-015   XYZ
    dof rx rz
    limits (-45.0 45.0)
           (-45.0 45.0)
  end
:hierarchy
  begin
    root lhipjoint rhipjoint lowerback
    lhipjoint lfemur
    lfemur ltibia
    ltibia lfoot
    lfoot ltoes
    rhipjoint rfemur
    rfemur rtibia
    rtibia rfoot
    rfoot rtoes
    lowerback upperback
    upperback thorax
    thorax lowerneck lclavicle rclavicle
    lowerneck upperneck
    upperneck head
    lclavicle lhumerus
    lhumerus lradius
    lradius lwrist
    lwrist lhand lthumb
    lhand lfingers
    rclavicle rhumerus
    rhumerus rradius
    rradius rwrist
    rwrist rhand rthumb
    rhand rfingers
  end

#!OML:ASF E:\madness\Project 1\Capture day 1\Session 1\Female1.ASF
:FULLY-SPECIFIED
:DEGREES
510
root 32.199 15.9525 -3.04035 -521.73 -84.8847 527.925
lowerback -4.12423 -2.12068 -7.23677
upperback -1.45509 -2.60139 2.78169
thorax 1.25477 -1.32037 6.83478
lowerneck 3.45536 -10.4313 -9.63088
upperneck -2.49555 -14.3371 1.49225
head -0.552688 -7.12195 2.17329
rclavicle 1.28465e-014 4.37326e-015
rhumerus -47.025 26.8612 -70.4869
rradius 48.9327
rwrist 2.92135
rhand -4.23475 -48.0222
rfingers 7.12502
rthumb 21.5285 -76.8458
lclavicle 1.28465e-014 4.37326e-015
lhumerus -87.6979 -21.4039 83.5013
lradius 87.4411
lwrist -12.3326
lhand -12.8907 -21.5718
lfingers 7.12502
lthumb 13.1985 7.9904
rfemur -15.7293 11.0381 15.5644
rtibia 29.2578
rfoot -22.816 -6.3364
rtoes 36.2235
lfemur -19.9455 -8.86003 -18.962
ltibia 36.0963
lfoot -11.4745 16.1455
ltoes -7.41429
511
root 32.2015 15.9517 -3.01281 -523.431 -84.3424 529.713
lowerback -3.94191 -2.14154 -7.29162
upperback -1.56795 -2.64459 2.8431
thorax 1.04762 -1.33075 6.93721
lowerneck 3.77487 -10.7749 -9.77205
upperneck -2.6771 -14.8269 1.78952
head -0.603027 -7.36478 2.30992
rclavicle 2.62147e-015 8.34896e-015
rhumerus -46.756 27.2453 -70.2752
rradius 48.9988
rwrist 2.68884
rhand -4.61974 -48.026
rfingers 7.12502
rthumb 21.1587 -76.8914
lclavicle 2.62147e-015 8.34896e-015
lhumerus -88.2649 -20.5055 83.7687
lradius 87.2342
lwrist -12.5184
lhand -12.4411 -21.4731
lfingers 7.12502
lthumb 13.6319 8.06048
rfemur -15.8714 11.4062 15.4446
rtibia 29.0369
rfoot -22.4589 -6.37307
rtoes 36.067
lfemur -20.1035 -8.78044 -18.9304
ltibia 36.2084
lfoot -11.4164 15.9663
ltoes -7.1479
512
root 32.2002 15.9645 -2.98259 -523.418 -83.8887 529.836
lowerback -3.93782 -2.24157 -7.52899
upperback -1.59901 -2.77305 2.95269
thorax 1.0511 -1.39504 7.18273
lowerneck 4.4123 -11.1521 -10.0837
upperneck -2.95311 -15.4074 2.09683
head -0.716627 -7.65034 2.50356
rclavicle 2.40902e-014 1.66979e-014
rhumerus -45.9438 27.6823 -69.8526
rradius 48.3416
rwrist 2.64257
rhand -5.27636 -47.4621
rfingers 7.12502
rthumb 20.5279 -76.3968
lclavicle 2.40902e-014 1.66979e-014
lhumerus -88.6279 -19.4681 84.0414
lradius 86.9078
lwrist -12.7695
lhand -12.065 -21.5876
lfingers 7.12502
lthumb 13.9944 7.92133
rfemur -16.0266 11.699 15.1645
rtibia 28.8426
rfoot -22.2208 -6.51237
rtoes 35.2768
lfemur -20.25 -9.06153 -19.021
ltibia 36.214
lfoot -11.2971 16.1366
ltoes -6.91572
513
root 32.1965 15.9693 -2.9478 -524.012 -83.3476 530.542
lowerback -4.00094 -2.27564 -7.63952
upperback -1.47588 -2.80805 3.04582
thorax 1.23084 -1.42461 7.33837
lowerneck 4.11713 -11.4802 -10.2003
upperneck -2.9711 -15.8139 2.24999
head -0.624592 -7.85584 2.53921
rclavicle -3.04638e-014 -9.93923e-015
rhumerus -44.8014 28.0543 -69.2769
rradius 47.7447
rwrist 2.50783
rhand -4.75909 -47.6995
rfingers 7.12502
rthumb 21.0249 -76.5798
lclavicle -3.04638e-014 -9.93923e-015
lhumerus -88.7146 -18.455 84.3023
lradius 86.4971
lwrist -12.5035
lhand -15.0232 -22.6905
lfingers 7.12502
lthumb 11.1424 6.99365
rfemur -16.2352 12.091 14.9037
rtibia 28.8001
rfoot -22.1331 -6.63412
rtoes 33.938
lfemur -20.2818 -9.18076 -19.1395
ltibia 36.1516
lfoot -10.9848 16.4934
ltoes -7.55234
514
root 32.1938 15.9671 -2.9138 -525.397 -82.7505 531.959
lowerback -3.9573 -2.27418 -7.60148
upperback -1.35026 -2.80772 3.08859
thorax 1.33793 -1.43306 7.36104
lowerneck 3.9419 -11.8914 -10.3948
upperneck -2.9286 -16.3336 2.68292
head -0.493502 -8.12299 2.67546
rclavicle 3.18801e-014 2.0276e-014
rhumerus -43.9158 28.327 -68.8193
rradius 47.5393
rwrist 2.50609
rhand -4.17129 -48.2856
rfingers 7.12502
rthumb 21.5895 -77.1021
lclavicle 3.18801e-014 2.0276e-014
lhumerus -88.8135 -17.4719 84.5054
lradius 86.1595
lwrist -11.547
lhand -14.1304 -22.4754
lfingers 7.12502
lthumb 12.0034 7.16044
rfemur -16.4398 12.491 14.7772
rtibia 28.8577
rfoot -22.0404 -6.7431
rtoes 32.1956
lfemur -20.1004 -9.07791 -19.2279
ltibia 35.9237
lfoot -10.8014 16.84
ltoes -7.67575
515
root 32.1911 15.9668 -2.88244 -525.496 -82.243 532.162
lowerback -3.94745 -2.32603 -7.68368
upperback -1.31457 -2.87298 3.07667
thorax 1.38494 -1.46897 7.3907
lowerneck 3.87807 -12.27 -10.3743
upperneck -2.82964 -16.8219 2.82478
head -0.406723 -8.37266 2.693
rclavicle -5.15598e-014 4.65156e-014
rhumerus -43.4299 28.6113 -68.5287
rradius 47.6021
rwrist 2.46213
rhand -4.68054 -48.3115
rfingers 7.12502
rthumb 21.1003 -77.1834
lclavicle -5.15598e-014 4.65156e-014
lhumerus -88.945 -16.4974 84.5878
lradius 85.9283
lwrist -10.6795
lhand -15.3497 -23.8926
lfingers 7.12502
lthumb 10.8275 5.80832
rfemur -16.768 12.7816 14.5252
rtibia 28.988
rfoot -21.9227 -6.93898
rtoes 30.351
lfemur -19.9539 -8.90674 -19.4367
ltibia 35.6326
lfoot -10.3489 17.267
ltoes -8.74457
516
root 32.191 15.9702 -2.84952 -524.567 -81.7771 531.501
lowerback -3.99316 -2.39915 -7.8596
upperback -1.32393 -2.95962 3.03725
thorax 1.42325 -1.51395 7.44224
lowerneck 3.95849 -12.5389 -10.2333
upperneck -2.93296 -17.1802 2.89494
head -0.435047 -8.55185 2.69506
rclavicle 2.24875e-014 1.74931e-014
rhumerus -43.0005 28.8582 -68.2194
rradius 47.9522
rwrist 2.3417
rhand -5.18599 -48.0982
rfingers 7.12502
rthumb 20.6147 -77.0235
lclavicle 2.24875e-014 1.74931e-014
lhumerus -88.9772 -15.552 84.5558
lradius 85.8138
lwrist -10.1205
lhand -15.2436 -23.5952
lfingers 7.12502
lthumb 10.9298 6.10032
rfemur -17.2789 12.9312 14.0992
rtibia 29.0723
rfoot -21.6935 -7.03669
rtoes 29.0626
lfemur -19.9742 -8.80074 -19.7458
ltibia 35.2846
lfoot -9.61989 17.8045
ltoes -10.6222
517
root 32.1904 15.9722 -2.81524 -524.733 -81.1298 531.911
lowerback -4.01282 -2.38823 -7.93611
upperback -1.34421 -2.94142 3.03775
thorax 1.4133 -1.50403 7.48786
lowerneck 4.10653 -12.7774 -10.2857
upperneck -3.04226 -17.5045 3.23294
head -0.436334 -8.71693 2.8158
rclavicle -1.72446e-014 -1.47101e-014
rhumerus -42.47 29.0548 -67.867
rradius 48.2235
rwrist 2.33478
rhand -4.88306 -48.355
rfingers 7.12502
rthumb 20.9058 -77.2485
lclavicle -1.72446e-014 -1.47101e-014
lhumerus -89.049 -14.627 84.5541
lradius 85.7629
lwrist -9.51269
lhand -15.7207 -24.047
lfingers 7.12502
lthumb 10.4696 5.6723
rfemur -17.7493 13.2679 13.7678
rtibia 29.0866
rfoot -21.4644 -6.73626
rtoes 29.8417
lfemur -19.9418 -8.57162 -19.9696
ltibia 34.869
lfoot -8.90487 18.3263
ltoes -11.9329
518
root 32.1818 15.9736 -2.78272 -525.814 -80.3468 533.055
lowerback -4.00915 -2.34488 -7.97798
upperback -1.30818 -2.8834 3.12267
thorax 1.44424 -1.47832 7.60645
lowerneck 3.73926 -13.0487 -10.2942
upperneck -2.81449 -17.8225 3.28247
head -0.273209 -8.88202 2.77902
rclavicle 1.19271e-015 8.34896e-015
rhumerus -41.6876 29.5509 -67.5368
rradius 47.848
rwrist 2.17007
rhand -4.55784 -48.6448
rfingers 7.12502
rthumb 21.2182 -77.5035
lclavicle 1.19271e-015 8.34896e-015
lhumerus -89.1195 -13.5569 84.5871
lradius 85.5392
lwrist -9.12926
lhand -13.7935 -22.9727
lfingers 7.12502
lthumb 12.3282 6.6438
rfemur -17.9206 13.7899 13.5934
rtibia 28.9721
rfoot -21.2706 -6.22105
rtoes 31.9683
lfemur -19.642 -8.30484 -20.1258
ltibia 34.4324
lfoot -8.4555 18.8444
ltoes -12.1999
